<svg xmlns="http://www.w3.org/2000/svg" viewBox="0 0 2400 1029" width="2400" height="1029" role="img" aria-hidden="true"><rect width="2400" height="1029" fill="#0B1220"/><g stroke="#FFFFFF" stroke-opacity=".055" stroke-width="1"><path d="M0 0V1029"/><path d="M48 0V1029"/><path d="M96 0V1029"/><path d="M144 0V1029"/><path d="M192 0V1029"/><path d="M240 0V1029"/><path d="M288 0V1029"/><path d="M336 0V1029"/><path d="M384 0V1029"/><path d="M432 0V1029"/><path d="M480 0V1029"/><path d="M528 0V1029"/><path d="M576 0V1029"/><path d="M624 0V1029"/><path d="M672 0V1029"/><path d="M720 0V1029"/><path d="M768 0V1029"/><path d="M816 0V1029"/><path d="M864 0V1029"/><path d="M912 0V1029"/><path d="M960 0V1029"/><path d="M1008 0V1029"/><path d="M1056 0V1029"/><path d="M1104 0V1029"/><path d="M1152 0V1029"/><path d="M1200 0V1029"/><path d="M1248 0V1029"/><path d="M1296 0V1029"/><path d="M1344 0V1029"/><path d="M1392 0V1029"/><path d="M1440 0V1029"/><path d="M1488 0V1029"/><path d="M1536 0V1029"/><path d="M1584 0V1029"/><path d="M1632 0V1029"/><path d="M1680 0V1029"/><path d="M1728 0V1029"/><path d="M1776 0V1029"/><path d="M1824 0V1029"/><path d="M1872 0V1029"/><path d="M1920 0V1029"/><path d="M1968 0V1029"/><path d="M2016 0V1029"/><path d="M2064 0V1029"/><path d="M2112 0V1029"/><path d="M2160 0V1029"/><path d="M2208 0V1029"/><path d="M2256 0V1029"/><path d="M2304 0V1029"/><path d="M2352 0V1029"/><path d="M2400 0V1029"/><path d="M0 0H2400"/><path d="M0 48H2400"/><path d="M0 96H2400"/><path d="M0 144H2400"/><path d="M0 192H2400"/><path d="M0 240H2400"/><path d="M0 288H2400"/><path d="M0 336H2400"/><path d="M0 384H2400"/><path d="M0 432H2400"/><path d="M0 480H2400"/><path d="M0 528H2400"/><path d="M0 576H2400"/><path d="M0 624H2400"/><path d="M0 672H2400"/><path d="M0 720H2400"/><path d="M0 768H2400"/><path d="M0 816H2400"/><path d="M0 864H2400"/><path d="M0 912H2400"/><path d="M0 960H2400"/><path d="M0 1008H2400"/></g><g stroke="#FFFFFF" stroke-opacity=".09" stroke-width="1"><path d="M0 0V1029"/><path d="M192 0V1029"/><path d="M384 0V1029"/><path d="M576 0V1029"/><path d="M768 0V1029"/><path d="M960 0V1029"/><path d="M1152 0V1029"/><path d="M1344 0V1029"/><path d="M1536 0V1029"/><path d="M1728 0V1029"/><path d="M1920 0V1029"/><path d="M2112 0V1029"/><path d="M2304 0V1029"/><path d="M0 0H2400"/><path d="M0 192H2400"/><path d="M0 384H2400"/><path d="M0 576H2400"/><path d="M0 768H2400"/><path d="M0 960H2400"/></g><rect x="24" y="24" width="2352" height="981" fill="none" stroke="#FFFFFF" stroke-opacity=".18"/><rect x="34" y="34" width="2332" height="961" fill="none" stroke="#FFFFFF" stroke-opacity=".08"/><path d="M300 780L560 300L1500 240L1980 620L1700 860Z" fill="#FFFFFF" fill-opacity=".05" stroke="#FFFFFF" stroke-opacity=".5" stroke-width="2"/><path d="M364 743L609 319L1436 286L1896 607L1646 813Z" fill="none" stroke="#FFFFFF" stroke-opacity=".13" stroke-dasharray="8 8"/><path d="M398 726L643 308L1402 297L1862 598L1612 796Z" fill="none" stroke="#FFFFFF" stroke-opacity=".13" stroke-dasharray="8 8"/><path d="M432 709L677 296L1368 309L1828 590L1578 779Z" fill="none" stroke="#FFFFFF" stroke-opacity=".13" stroke-dasharray="8 8"/><path d="M466 692L711 285L1334 320L1794 581L1544 762Z" fill="none" stroke="#FFFFFF" stroke-opacity=".13" stroke-dasharray="8 8"/><path d="M500 675L745 274L1300 331L1760 573L1510 745Z" fill="none" stroke="#FFFFFF" stroke-opacity=".13" stroke-dasharray="8 8"/><rect x="760" y="430" width="420" height="260" fill="#2563EB" fill-opacity=".28" stroke="#38BDF8" stroke-opacity=".7" stroke-width="2"/><text x="970" y="570" fill="#FFFFFF" fill-opacity="0.8" font-family="Inter,Helvetica,Arial,sans-serif" font-size="14" font-weight="500" letter-spacing="2.2" text-anchor="middle">PROPOSED BUILDING</text><g transform="translate(2080,220)"><path d="M0 -46L16 22L0 8L-16 22Z" fill="#FFFFFF" fill-opacity=".7"/><text x="0" y="52" fill="#FFFFFF" fill-opacity="0.6" font-family="Inter,Helvetica,Arial,sans-serif" font-size="16" font-weight="600" letter-spacing="0" text-anchor="middle">N</text></g><g stroke="#FFFFFF" stroke-opacity="0.42" stroke-width="1.2"><path d="M300 960H1980"/><path d="M300 953v14"/><path d="M1980 953v14"/></g><text x="1140.0" y="948" fill="#FFFFFF" fill-opacity="0.5" font-family="Inter,Helvetica,Arial,sans-serif" font-size="12" font-weight="500" letter-spacing="2.2" text-anchor="middle">PLOT 42 · 0.31 ACRE</text><text x="140" y="120" fill="#FFFFFF" fill-opacity="0.5" font-family="Inter,Helvetica,Arial,sans-serif" font-size="16" font-weight="500" letter-spacing="2.2" text-anchor="start">SITE PLAN</text><text x="140" y="156" fill="#FFFFFF" fill-opacity="0.32" font-family="Inter,Helvetica,Arial,sans-serif" font-size="13" font-weight="500" letter-spacing="2.2" text-anchor="start">AIRPORT CITY, GREATER ACCRA</text><g><rect x="2028" y="921" width="340" height="76" fill="none" stroke="#FFFFFF" stroke-opacity=".22"/><path d="M2028 949h340" stroke="#FFFFFF" stroke-opacity=".22"/><path d="M2256 921v76" stroke="#FFFFFF" stroke-opacity=".22"/><text x="2042" y="940" fill="#FFFFFF" fill-opacity="0.45" font-family="Inter,Helvetica,Arial,sans-serif" font-size="12" font-weight="500" letter-spacing="2.2" text-anchor="start">SITE-042</text><text x="2042" y="975" fill="#FFFFFF" fill-opacity="0.85" font-family="Inter,Helvetica,Arial,sans-serif" font-size="15" font-weight="600" letter-spacing="0" text-anchor="start">Where the method was tested</text><text x="2270" y="940" fill="#FFFFFF" fill-opacity="0.4" font-family="Inter,Helvetica,Arial,sans-serif" font-size="11" font-weight="500" letter-spacing="2.2" text-anchor="start">SHEET</text><text x="2270" y="975" fill="#FFFFFF" fill-opacity="0.7" font-family="Inter,Helvetica,Arial,sans-serif" font-size="15" font-weight="600" letter-spacing="0" text-anchor="start">L-01</text></g></svg>