<svg xmlns="http://www.w3.org/2000/svg" viewBox="0 0 2000 1250" width="2000" height="1250" role="img" aria-hidden="true"><rect width="2000" height="1250" fill="#0B1220"/><g stroke="#FFFFFF" stroke-opacity=".055" stroke-width="1"><path d="M0 0V1250"/><path d="M48 0V1250"/><path d="M96 0V1250"/><path d="M144 0V1250"/><path d="M192 0V1250"/><path d="M240 0V1250"/><path d="M288 0V1250"/><path d="M336 0V1250"/><path d="M384 0V1250"/><path d="M432 0V1250"/><path d="M480 0V1250"/><path d="M528 0V1250"/><path d="M576 0V1250"/><path d="M624 0V1250"/><path d="M672 0V1250"/><path d="M720 0V1250"/><path d="M768 0V1250"/><path d="M816 0V1250"/><path d="M864 0V1250"/><path d="M912 0V1250"/><path d="M960 0V1250"/><path d="M1008 0V1250"/><path d="M1056 0V1250"/><path d="M1104 0V1250"/><path d="M1152 0V1250"/><path d="M1200 0V1250"/><path d="M1248 0V1250"/><path d="M1296 0V1250"/><path d="M1344 0V1250"/><path d="M1392 0V1250"/><path d="M1440 0V1250"/><path d="M1488 0V1250"/><path d="M1536 0V1250"/><path d="M1584 0V1250"/><path d="M1632 0V1250"/><path d="M1680 0V1250"/><path d="M1728 0V1250"/><path d="M1776 0V1250"/><path d="M1824 0V1250"/><path d="M1872 0V1250"/><path d="M1920 0V1250"/><path d="M1968 0V1250"/><path d="M0 0H2000"/><path d="M0 48H2000"/><path d="M0 96H2000"/><path d="M0 144H2000"/><path d="M0 192H2000"/><path d="M0 240H2000"/><path d="M0 288H2000"/><path d="M0 336H2000"/><path d="M0 384H2000"/><path d="M0 432H2000"/><path d="M0 480H2000"/><path d="M0 528H2000"/><path d="M0 576H2000"/><path d="M0 624H2000"/><path d="M0 672H2000"/><path d="M0 720H2000"/><path d="M0 768H2000"/><path d="M0 816H2000"/><path d="M0 864H2000"/><path d="M0 912H2000"/><path d="M0 960H2000"/><path d="M0 1008H2000"/><path d="M0 1056H2000"/><path d="M0 1104H2000"/><path d="M0 1152H2000"/><path d="M0 1200H2000"/><path d="M0 1248H2000"/></g><g stroke="#FFFFFF" stroke-opacity=".09" stroke-width="1"><path d="M0 0V1250"/><path d="M192 0V1250"/><path d="M384 0V1250"/><path d="M576 0V1250"/><path d="M768 0V1250"/><path d="M960 0V1250"/><path d="M1152 0V1250"/><path d="M1344 0V1250"/><path d="M1536 0V1250"/><path d="M1728 0V1250"/><path d="M1920 0V1250"/><path d="M0 0H2000"/><path d="M0 192H2000"/><path d="M0 384H2000"/><path d="M0 576H2000"/><path d="M0 768H2000"/><path d="M0 960H2000"/><path d="M0 1152H2000"/></g><rect x="24" y="24" width="1952" height="1202" fill="none" stroke="#FFFFFF" stroke-opacity=".18"/><rect x="34" y="34" width="1932" height="1182" fill="none" stroke="#FFFFFF" stroke-opacity=".08"/><rect x="300" y="240" width="1400" height="820" fill="#0B1220" stroke="#FFFFFF" stroke-opacity=".4"/><path d="M300 336h1400" stroke="#FFFFFF" stroke-opacity=".3"/><text x="340" y="302" fill="#FFFFFF" fill-opacity="0.8" font-family="Inter,Helvetica,Arial,sans-serif" font-size="18" font-weight="600" letter-spacing="1" text-anchor="start">RATE BOOK  MATERIALS</text><text x="340" y="410" fill="#FFFFFF" fill-opacity="0.85" font-family="Inter,Helvetica,Arial,sans-serif" font-size="20" font-weight="500" letter-spacing="0" text-anchor="start">Ghacem cement 50kg</text><text x="1200" y="410" fill="#FFFFFF" fill-opacity="0.4" font-family="Inter,Helvetica,Arial,sans-serif" font-size="16" font-weight="500" letter-spacing="0" text-anchor="end">bag</text><text x="1480" y="410" fill="#FFFFFF" fill-opacity="0.9" font-family="Inter,Helvetica,Arial,sans-serif" font-size="20" font-weight="500" letter-spacing="0" text-anchor="end">98.00</text><text x="1660" y="410" fill="#FFFFFF" fill-opacity="0.35" font-family="Inter,Helvetica,Arial,sans-serif" font-size="14" font-weight="500" letter-spacing="0" text-anchor="end">12 d</text><path d="M340 440h1320" stroke="#FFFFFF" stroke-opacity=".1"/><text x="340" y="506" fill="#FFFFFF" fill-opacity="0.85" font-family="Inter,Helvetica,Arial,sans-serif" font-size="20" font-weight="500" letter-spacing="0" text-anchor="start">6-inch sandcrete block</text><text x="1200" y="506" fill="#FFFFFF" fill-opacity="0.4" font-family="Inter,Helvetica,Arial,sans-serif" font-size="16" font-weight="500" letter-spacing="0" text-anchor="end">no</text><text x="1480" y="506" fill="#FFFFFF" fill-opacity="0.9" font-family="Inter,Helvetica,Arial,sans-serif" font-size="20" font-weight="500" letter-spacing="0" text-anchor="end">9.50</text><text x="1660" y="506" fill="#FFFFFF" fill-opacity="0.35" font-family="Inter,Helvetica,Arial,sans-serif" font-size="14" font-weight="500" letter-spacing="0" text-anchor="end">31 d</text><path d="M340 536h1320" stroke="#FFFFFF" stroke-opacity=".1"/><text x="340" y="602" fill="#FFFFFF" fill-opacity="0.85" font-family="Inter,Helvetica,Arial,sans-serif" font-size="20" font-weight="500" letter-spacing="0" text-anchor="start">Sharp sand</text><text x="1200" y="602" fill="#FFFFFF" fill-opacity="0.4" font-family="Inter,Helvetica,Arial,sans-serif" font-size="16" font-weight="500" letter-spacing="0" text-anchor="end">trip</text><text x="1480" y="602" fill="#FFFFFF" fill-opacity="0.9" font-family="Inter,Helvetica,Arial,sans-serif" font-size="20" font-weight="500" letter-spacing="0" text-anchor="end">1,450.00</text><text x="1660" y="602" fill="#FFFFFF" fill-opacity="0.35" font-family="Inter,Helvetica,Arial,sans-serif" font-size="14" font-weight="500" letter-spacing="0" text-anchor="end">8 d</text><path d="M340 632h1320" stroke="#FFFFFF" stroke-opacity=".1"/><text x="340" y="698" fill="#FFFFFF" fill-opacity="0.85" font-family="Inter,Helvetica,Arial,sans-serif" font-size="20" font-weight="500" letter-spacing="0" text-anchor="start">12 mm reinforcement</text><text x="1200" y="698" fill="#FFFFFF" fill-opacity="0.4" font-family="Inter,Helvetica,Arial,sans-serif" font-size="16" font-weight="500" letter-spacing="0" text-anchor="end">kg</text><text x="1480" y="698" fill="#FFFFFF" fill-opacity="0.9" font-family="Inter,Helvetica,Arial,sans-serif" font-size="20" font-weight="500" letter-spacing="0" text-anchor="end">12.40</text><text x="1660" y="698" fill="#F0736A" fill-opacity="0.8" font-family="Inter,Helvetica,Arial,sans-serif" font-size="14" font-weight="500" letter-spacing="0" text-anchor="end">82 d</text><path d="M340 728h1320" stroke="#FFFFFF" stroke-opacity=".1"/><text x="340" y="794" fill="#FFFFFF" fill-opacity="0.85" font-family="Inter,Helvetica,Arial,sans-serif" font-size="20" font-weight="500" letter-spacing="0" text-anchor="start">60×60 porcelain tile</text><text x="1200" y="794" fill="#FFFFFF" fill-opacity="0.4" font-family="Inter,Helvetica,Arial,sans-serif" font-size="16" font-weight="500" letter-spacing="0" text-anchor="end">m²</text><text x="1480" y="794" fill="#FFFFFF" fill-opacity="0.9" font-family="Inter,Helvetica,Arial,sans-serif" font-size="20" font-weight="500" letter-spacing="0" text-anchor="end">132.00</text><text x="1660" y="794" fill="#FFFFFF" fill-opacity="0.35" font-family="Inter,Helvetica,Arial,sans-serif" font-size="14" font-weight="500" letter-spacing="0" text-anchor="end">24 d</text><path d="M340 824h1320" stroke="#FFFFFF" stroke-opacity=".1"/><text x="340" y="890" fill="#FFFFFF" fill-opacity="0.85" font-family="Inter,Helvetica,Arial,sans-serif" font-size="20" font-weight="500" letter-spacing="0" text-anchor="start">Aluzinc sheet 0.45</text><text x="1200" y="890" fill="#FFFFFF" fill-opacity="0.4" font-family="Inter,Helvetica,Arial,sans-serif" font-size="16" font-weight="500" letter-spacing="0" text-anchor="end">m²</text><text x="1480" y="890" fill="#FFFFFF" fill-opacity="0.9" font-family="Inter,Helvetica,Arial,sans-serif" font-size="20" font-weight="500" letter-spacing="0" text-anchor="end">88.00</text><text x="1660" y="890" fill="#F0736A" fill-opacity="0.8" font-family="Inter,Helvetica,Arial,sans-serif" font-size="14" font-weight="500" letter-spacing="0" text-anchor="end">67 d</text><path d="M340 920h1320" stroke="#FFFFFF" stroke-opacity=".1"/><text x="340" y="986" fill="#FFFFFF" fill-opacity="0.85" font-family="Inter,Helvetica,Arial,sans-serif" font-size="20" font-weight="500" letter-spacing="0" text-anchor="start">Emulsion paint 4 gal</text><text x="1200" y="986" fill="#FFFFFF" fill-opacity="0.4" font-family="Inter,Helvetica,Arial,sans-serif" font-size="16" font-weight="500" letter-spacing="0" text-anchor="end">no</text><text x="1480" y="986" fill="#FFFFFF" fill-opacity="0.9" font-family="Inter,Helvetica,Arial,sans-serif" font-size="20" font-weight="500" letter-spacing="0" text-anchor="end">520.00</text><text x="1660" y="986" fill="#FFFFFF" fill-opacity="0.35" font-family="Inter,Helvetica,Arial,sans-serif" font-size="14" font-weight="500" letter-spacing="0" text-anchor="end">19 d</text><path d="M340 1016h1320" stroke="#FFFFFF" stroke-opacity=".1"/><text x="140" y="120" fill="#FFFFFF" fill-opacity="0.5" font-family="Inter,Helvetica,Arial,sans-serif" font-size="16" font-weight="500" letter-spacing="2.2" text-anchor="start">FIELD NOTES</text><text x="140" y="156" fill="#FFFFFF" fill-opacity="0.32" font-family="Inter,Helvetica,Arial,sans-serif" font-size="13" font-weight="500" letter-spacing="2.2" text-anchor="start">A RATE WITHOUT A DATE IS A GUESS</text></svg>