<svg xmlns="http://www.w3.org/2000/svg" viewBox="0 0 2400 1029" width="2400" height="1029" role="img" aria-hidden="true"><rect width="2400" height="1029" fill="#0B1220"/><g stroke="#FFFFFF" stroke-opacity=".055" stroke-width="1"><path d="M0 0V1029"/><path d="M48 0V1029"/><path d="M96 0V1029"/><path d="M144 0V1029"/><path d="M192 0V1029"/><path d="M240 0V1029"/><path d="M288 0V1029"/><path d="M336 0V1029"/><path d="M384 0V1029"/><path d="M432 0V1029"/><path d="M480 0V1029"/><path d="M528 0V1029"/><path d="M576 0V1029"/><path d="M624 0V1029"/><path d="M672 0V1029"/><path d="M720 0V1029"/><path d="M768 0V1029"/><path d="M816 0V1029"/><path d="M864 0V1029"/><path d="M912 0V1029"/><path d="M960 0V1029"/><path d="M1008 0V1029"/><path d="M1056 0V1029"/><path d="M1104 0V1029"/><path d="M1152 0V1029"/><path d="M1200 0V1029"/><path d="M1248 0V1029"/><path d="M1296 0V1029"/><path d="M1344 0V1029"/><path d="M1392 0V1029"/><path d="M1440 0V1029"/><path d="M1488 0V1029"/><path d="M1536 0V1029"/><path d="M1584 0V1029"/><path d="M1632 0V1029"/><path d="M1680 0V1029"/><path d="M1728 0V1029"/><path d="M1776 0V1029"/><path d="M1824 0V1029"/><path d="M1872 0V1029"/><path d="M1920 0V1029"/><path d="M1968 0V1029"/><path d="M2016 0V1029"/><path d="M2064 0V1029"/><path d="M2112 0V1029"/><path d="M2160 0V1029"/><path d="M2208 0V1029"/><path d="M2256 0V1029"/><path d="M2304 0V1029"/><path d="M2352 0V1029"/><path d="M2400 0V1029"/><path d="M0 0H2400"/><path d="M0 48H2400"/><path d="M0 96H2400"/><path d="M0 144H2400"/><path d="M0 192H2400"/><path d="M0 240H2400"/><path d="M0 288H2400"/><path d="M0 336H2400"/><path d="M0 384H2400"/><path d="M0 432H2400"/><path d="M0 480H2400"/><path d="M0 528H2400"/><path d="M0 576H2400"/><path d="M0 624H2400"/><path d="M0 672H2400"/><path d="M0 720H2400"/><path d="M0 768H2400"/><path d="M0 816H2400"/><path d="M0 864H2400"/><path d="M0 912H2400"/><path d="M0 960H2400"/><path d="M0 1008H2400"/></g><g stroke="#FFFFFF" stroke-opacity=".09" stroke-width="1"><path d="M0 0V1029"/><path d="M192 0V1029"/><path d="M384 0V1029"/><path d="M576 0V1029"/><path d="M768 0V1029"/><path d="M960 0V1029"/><path d="M1152 0V1029"/><path d="M1344 0V1029"/><path d="M1536 0V1029"/><path d="M1728 0V1029"/><path d="M1920 0V1029"/><path d="M2112 0V1029"/><path d="M2304 0V1029"/><path d="M0 0H2400"/><path d="M0 192H2400"/><path d="M0 384H2400"/><path d="M0 576H2400"/><path d="M0 768H2400"/><path d="M0 960H2400"/></g><rect x="24" y="24" width="2352" height="981" fill="none" stroke="#FFFFFF" stroke-opacity=".18"/><rect x="34" y="34" width="2332" height="961" fill="none" stroke="#FFFFFF" stroke-opacity=".08"/><rect x="200" y="580" width="200" height="260" fill="#FFFFFF" fill-opacity=".08" stroke="#FFFFFF" stroke-opacity=".38"/><rect x="222" y="610" width="18" height="22" fill="#FFFFFF" fill-opacity=".12"/><rect x="264" y="610" width="18" height="22" fill="#FFFFFF" fill-opacity=".12"/><rect x="306" y="610" width="18" height="22" fill="#FFFFFF" fill-opacity=".12"/><rect x="348" y="610" width="18" height="22" fill="#FFFFFF" fill-opacity=".12"/><rect x="222" y="656" width="18" height="22" fill="#FFFFFF" fill-opacity=".12"/><rect x="264" y="656" width="18" height="22" fill="#FFFFFF" fill-opacity=".12"/><rect x="306" y="656" width="18" height="22" fill="#FFFFFF" fill-opacity=".12"/><rect x="348" y="656" width="18" height="22" fill="#FFFFFF" fill-opacity=".12"/><rect x="222" y="702" width="18" height="22" fill="#FFFFFF" fill-opacity=".12"/><rect x="264" y="702" width="18" height="22" fill="#FFFFFF" fill-opacity=".12"/><rect x="306" y="702" width="18" height="22" fill="#FFFFFF" fill-opacity=".12"/><rect x="348" y="702" width="18" height="22" fill="#FFFFFF" fill-opacity=".12"/><rect x="222" y="748" width="18" height="22" fill="#FFFFFF" fill-opacity=".12"/><rect x="264" y="748" width="18" height="22" fill="#FFFFFF" fill-opacity=".12"/><rect x="306" y="748" width="18" height="22" fill="#FFFFFF" fill-opacity=".12"/><rect x="348" y="748" width="18" height="22" fill="#FFFFFF" fill-opacity=".12"/><rect x="222" y="794" width="18" height="22" fill="#FFFFFF" fill-opacity=".12"/><rect x="264" y="794" width="18" height="22" fill="#FFFFFF" fill-opacity=".12"/><rect x="306" y="794" width="18" height="22" fill="#FFFFFF" fill-opacity=".12"/><rect x="348" y="794" width="18" height="22" fill="#FFFFFF" fill-opacity=".12"/><rect x="430" y="340" width="120" height="500" fill="#FFFFFF" fill-opacity=".08" stroke="#FFFFFF" stroke-opacity=".38"/><rect x="452" y="370" width="18" height="22" fill="#FFFFFF" fill-opacity=".12"/><rect x="494" y="370" width="18" height="22" fill="#FFFFFF" fill-opacity=".12"/><rect x="452" y="416" width="18" height="22" fill="#FFFFFF" fill-opacity=".12"/><rect x="494" y="416" width="18" height="22" fill="#FFFFFF" fill-opacity=".12"/><rect x="452" y="462" width="18" height="22" fill="#FFFFFF" fill-opacity=".12"/><rect x="494" y="462" width="18" height="22" fill="#FFFFFF" fill-opacity=".12"/><rect x="452" y="508" width="18" height="22" fill="#FFFFFF" fill-opacity=".12"/><rect x="494" y="508" width="18" height="22" fill="#FFFFFF" fill-opacity=".12"/><rect x="452" y="554" width="18" height="22" fill="#FFFFFF" fill-opacity=".12"/><rect x="494" y="554" width="18" height="22" fill="#FFFFFF" fill-opacity=".12"/><rect x="452" y="600" width="18" height="22" fill="#FFFFFF" fill-opacity=".12"/><rect x="494" y="600" width="18" height="22" fill="#FFFFFF" fill-opacity=".12"/><rect x="452" y="646" width="18" height="22" fill="#FFFFFF" fill-opacity=".12"/><rect x="494" y="646" width="18" height="22" fill="#FFFFFF" fill-opacity=".12"/><rect x="452" y="692" width="18" height="22" fill="#FFFFFF" fill-opacity=".12"/><rect x="494" y="692" width="18" height="22" fill="#FFFFFF" fill-opacity=".12"/><rect x="452" y="738" width="18" height="22" fill="#FFFFFF" fill-opacity=".12"/><rect x="494" y="738" width="18" height="22" fill="#FFFFFF" fill-opacity=".12"/><rect x="452" y="784" width="18" height="22" fill="#FFFFFF" fill-opacity=".12"/><rect x="494" y="784" width="18" height="22" fill="#FFFFFF" fill-opacity=".12"/><path d="M490.0 340v-70" stroke="#38BDF8" stroke-opacity=".5" stroke-width="2"/><rect x="610" y="340" width="120" height="500" fill="#FFFFFF" fill-opacity=".08" stroke="#FFFFFF" stroke-opacity=".38"/><rect x="632" y="370" width="18" height="22" fill="#FFFFFF" fill-opacity=".12"/><rect x="674" y="370" width="18" height="22" fill="#FFFFFF" fill-opacity=".12"/><rect x="632" y="416" width="18" height="22" fill="#FFFFFF" fill-opacity=".12"/><rect x="674" y="416" width="18" height="22" fill="#FFFFFF" fill-opacity=".12"/><rect x="632" y="462" width="18" height="22" fill="#FFFFFF" fill-opacity=".12"/><rect x="674" y="462" width="18" height="22" fill="#FFFFFF" fill-opacity=".12"/><rect x="632" y="508" width="18" height="22" fill="#FFFFFF" fill-opacity=".12"/><rect x="674" y="508" width="18" height="22" fill="#FFFFFF" fill-opacity=".12"/><rect x="632" y="554" width="18" height="22" fill="#FFFFFF" fill-opacity=".12"/><rect x="674" y="554" width="18" height="22" fill="#FFFFFF" fill-opacity=".12"/><rect x="632" y="600" width="18" height="22" fill="#FFFFFF" fill-opacity=".12"/><rect x="674" y="600" width="18" height="22" fill="#FFFFFF" fill-opacity=".12"/><rect x="632" y="646" width="18" height="22" fill="#FFFFFF" fill-opacity=".12"/><rect x="674" y="646" width="18" height="22" fill="#FFFFFF" fill-opacity=".12"/><rect x="632" y="692" width="18" height="22" fill="#FFFFFF" fill-opacity=".12"/><rect x="674" y="692" width="18" height="22" fill="#FFFFFF" fill-opacity=".12"/><rect x="632" y="738" width="18" height="22" fill="#FFFFFF" fill-opacity=".12"/><rect x="674" y="738" width="18" height="22" fill="#FFFFFF" fill-opacity=".12"/><rect x="632" y="784" width="18" height="22" fill="#FFFFFF" fill-opacity=".12"/><rect x="674" y="784" width="18" height="22" fill="#FFFFFF" fill-opacity=".12"/><path d="M670.0 340v-70" stroke="#38BDF8" stroke-opacity=".5" stroke-width="2"/><rect x="760" y="420" width="240" height="420" fill="#FFFFFF" fill-opacity=".08" stroke="#FFFFFF" stroke-opacity=".38"/><rect x="782" y="450" width="18" height="22" fill="#FFFFFF" fill-opacity=".12"/><rect x="824" y="450" width="18" height="22" fill="#FFFFFF" fill-opacity=".12"/><rect x="866" y="450" width="18" height="22" fill="#FFFFFF" fill-opacity=".12"/><rect x="908" y="450" width="18" height="22" fill="#FFFFFF" fill-opacity=".12"/><rect x="950" y="450" width="18" height="22" fill="#FFFFFF" fill-opacity=".12"/><rect x="782" y="496" width="18" height="22" fill="#FFFFFF" fill-opacity=".12"/><rect x="824" y="496" width="18" height="22" fill="#FFFFFF" fill-opacity=".12"/><rect x="866" y="496" width="18" height="22" fill="#FFFFFF" fill-opacity=".12"/><rect x="908" y="496" width="18" height="22" fill="#FFFFFF" fill-opacity=".12"/><rect x="950" y="496" width="18" height="22" fill="#FFFFFF" fill-opacity=".12"/><rect x="782" y="542" width="18" height="22" fill="#FFFFFF" fill-opacity=".12"/><rect x="824" y="542" width="18" height="22" fill="#FFFFFF" fill-opacity=".12"/><rect x="866" y="542" width="18" height="22" fill="#FFFFFF" fill-opacity=".12"/><rect x="908" y="542" width="18" height="22" fill="#FFFFFF" fill-opacity=".12"/><rect x="950" y="542" width="18" height="22" fill="#FFFFFF" fill-opacity=".12"/><rect x="782" y="588" width="18" height="22" fill="#FFFFFF" fill-opacity=".12"/><rect x="824" y="588" width="18" height="22" fill="#FFFFFF" fill-opacity=".12"/><rect x="866" y="588" width="18" height="22" fill="#FFFFFF" fill-opacity=".12"/><rect x="908" y="588" width="18" height="22" fill="#FFFFFF" fill-opacity=".12"/><rect x="950" y="588" width="18" height="22" fill="#FFFFFF" fill-opacity=".12"/><rect x="782" y="634" width="18" height="22" fill="#FFFFFF" fill-opacity=".12"/><rect x="824" y="634" width="18" height="22" fill="#FFFFFF" fill-opacity=".12"/><rect x="866" y="634" width="18" height="22" fill="#FFFFFF" fill-opacity=".12"/><rect x="908" y="634" width="18" height="22" fill="#FFFFFF" fill-opacity=".12"/><rect x="950" y="634" width="18" height="22" fill="#FFFFFF" fill-opacity=".12"/><rect x="782" y="680" width="18" height="22" fill="#FFFFFF" fill-opacity=".12"/><rect x="824" y="680" width="18" height="22" fill="#FFFFFF" fill-opacity=".12"/><rect x="866" y="680" width="18" height="22" fill="#FFFFFF" fill-opacity=".12"/><rect x="908" y="680" width="18" height="22" fill="#FFFFFF" fill-opacity=".12"/><rect x="950" y="680" width="18" height="22" fill="#FFFFFF" fill-opacity=".12"/><rect x="782" y="726" width="18" height="22" fill="#FFFFFF" fill-opacity=".12"/><rect x="824" y="726" width="18" height="22" fill="#FFFFFF" fill-opacity=".12"/><rect x="866" y="726" width="18" height="22" fill="#FFFFFF" fill-opacity=".12"/><rect x="908" y="726" width="18" height="22" fill="#FFFFFF" fill-opacity=".12"/><rect x="950" y="726" width="18" height="22" fill="#FFFFFF" fill-opacity=".12"/><rect x="782" y="772" width="18" height="22" fill="#FFFFFF" fill-opacity=".12"/><rect x="824" y="772" width="18" height="22" fill="#FFFFFF" fill-opacity=".12"/><rect x="866" y="772" width="18" height="22" fill="#FFFFFF" fill-opacity=".12"/><rect x="908" y="772" width="18" height="22" fill="#FFFFFF" fill-opacity=".12"/><rect x="950" y="772" width="18" height="22" fill="#FFFFFF" fill-opacity=".12"/><path d="M880.0 420v-70" stroke="#38BDF8" stroke-opacity=".5" stroke-width="2"/><rect x="1030" y="660" width="240" height="180" fill="#FFFFFF" fill-opacity=".08" stroke="#FFFFFF" stroke-opacity=".38"/><rect x="1052" y="690" width="18" height="22" fill="#FFFFFF" fill-opacity=".12"/><rect x="1094" y="690" width="18" height="22" fill="#FFFFFF" fill-opacity=".12"/><rect x="1136" y="690" width="18" height="22" fill="#FFFFFF" fill-opacity=".12"/><rect x="1178" y="690" width="18" height="22" fill="#FFFFFF" fill-opacity=".12"/><rect x="1220" y="690" width="18" height="22" fill="#FFFFFF" fill-opacity=".12"/><rect x="1052" y="736" width="18" height="22" fill="#FFFFFF" fill-opacity=".12"/><rect x="1094" y="736" width="18" height="22" fill="#FFFFFF" fill-opacity=".12"/><rect x="1136" y="736" width="18" height="22" fill="#FFFFFF" fill-opacity=".12"/><rect x="1178" y="736" width="18" height="22" fill="#FFFFFF" fill-opacity=".12"/><rect x="1220" y="736" width="18" height="22" fill="#FFFFFF" fill-opacity=".12"/><rect x="1052" y="782" width="18" height="22" fill="#FFFFFF" fill-opacity=".12"/><rect x="1094" y="782" width="18" height="22" fill="#FFFFFF" fill-opacity=".12"/><rect x="1136" y="782" width="18" height="22" fill="#FFFFFF" fill-opacity=".12"/><rect x="1178" y="782" width="18" height="22" fill="#FFFFFF" fill-opacity=".12"/><rect x="1220" y="782" width="18" height="22" fill="#FFFFFF" fill-opacity=".12"/><rect x="1300" y="340" width="160" height="500" fill="#FFFFFF" fill-opacity=".08" stroke="#FFFFFF" stroke-opacity=".38"/><rect x="1322" y="370" width="18" height="22" fill="#FFFFFF" fill-opacity=".12"/><rect x="1364" y="370" width="18" height="22" fill="#FFFFFF" fill-opacity=".12"/><rect x="1406" y="370" width="18" height="22" fill="#FFFFFF" fill-opacity=".12"/><rect x="1322" y="416" width="18" height="22" fill="#FFFFFF" fill-opacity=".12"/><rect x="1364" y="416" width="18" height="22" fill="#FFFFFF" fill-opacity=".12"/><rect x="1406" y="416" width="18" height="22" fill="#FFFFFF" fill-opacity=".12"/><rect x="1322" y="462" width="18" height="22" fill="#FFFFFF" fill-opacity=".12"/><rect x="1364" y="462" width="18" height="22" fill="#FFFFFF" fill-opacity=".12"/><rect x="1406" y="462" width="18" height="22" fill="#FFFFFF" fill-opacity=".12"/><rect x="1322" y="508" width="18" height="22" fill="#FFFFFF" fill-opacity=".12"/><rect x="1364" y="508" width="18" height="22" fill="#FFFFFF" fill-opacity=".12"/><rect x="1406" y="508" width="18" height="22" fill="#FFFFFF" fill-opacity=".12"/><rect x="1322" y="554" width="18" height="22" fill="#FFFFFF" fill-opacity=".12"/><rect x="1364" y="554" width="18" height="22" fill="#FFFFFF" fill-opacity=".12"/><rect x="1406" y="554" width="18" height="22" fill="#FFFFFF" fill-opacity=".12"/><rect x="1322" y="600" width="18" height="22" fill="#FFFFFF" fill-opacity=".12"/><rect x="1364" y="600" width="18" height="22" fill="#FFFFFF" fill-opacity=".12"/><rect x="1406" y="600" width="18" height="22" fill="#FFFFFF" fill-opacity=".12"/><rect x="1322" y="646" width="18" height="22" fill="#FFFFFF" fill-opacity=".12"/><rect x="1364" y="646" width="18" height="22" fill="#FFFFFF" fill-opacity=".12"/><rect x="1406" y="646" width="18" height="22" fill="#FFFFFF" fill-opacity=".12"/><rect x="1322" y="692" width="18" height="22" fill="#FFFFFF" fill-opacity=".12"/><rect x="1364" y="692" width="18" height="22" fill="#FFFFFF" fill-opacity=".12"/><rect x="1406" y="692" width="18" height="22" fill="#FFFFFF" fill-opacity=".12"/><rect x="1322" y="738" width="18" height="22" fill="#FFFFFF" fill-opacity=".12"/><rect x="1364" y="738" width="18" height="22" fill="#FFFFFF" fill-opacity=".12"/><rect x="1406" y="738" width="18" height="22" fill="#FFFFFF" fill-opacity=".12"/><rect x="1322" y="784" width="18" height="22" fill="#FFFFFF" fill-opacity=".12"/><rect x="1364" y="784" width="18" height="22" fill="#FFFFFF" fill-opacity=".12"/><rect x="1406" y="784" width="18" height="22" fill="#FFFFFF" fill-opacity=".12"/><rect x="1520" y="660" width="240" height="180" fill="#FFFFFF" fill-opacity=".08" stroke="#FFFFFF" stroke-opacity=".38"/><rect x="1542" y="690" width="18" height="22" fill="#FFFFFF" fill-opacity=".12"/><rect x="1584" y="690" width="18" height="22" fill="#FFFFFF" fill-opacity=".12"/><rect x="1626" y="690" width="18" height="22" fill="#FFFFFF" fill-opacity=".12"/><rect x="1668" y="690" width="18" height="22" fill="#FFFFFF" fill-opacity=".12"/><rect x="1710" y="690" width="18" height="22" fill="#FFFFFF" fill-opacity=".12"/><rect x="1542" y="736" width="18" height="22" fill="#FFFFFF" fill-opacity=".12"/><rect x="1584" y="736" width="18" height="22" fill="#FFFFFF" fill-opacity=".12"/><rect x="1626" y="736" width="18" height="22" fill="#FFFFFF" fill-opacity=".12"/><rect x="1668" y="736" width="18" height="22" fill="#FFFFFF" fill-opacity=".12"/><rect x="1710" y="736" width="18" height="22" fill="#FFFFFF" fill-opacity=".12"/><rect x="1542" y="782" width="18" height="22" fill="#FFFFFF" fill-opacity=".12"/><rect x="1584" y="782" width="18" height="22" fill="#FFFFFF" fill-opacity=".12"/><rect x="1626" y="782" width="18" height="22" fill="#FFFFFF" fill-opacity=".12"/><rect x="1668" y="782" width="18" height="22" fill="#FFFFFF" fill-opacity=".12"/><rect x="1710" y="782" width="18" height="22" fill="#FFFFFF" fill-opacity=".12"/><rect x="1790" y="500" width="160" height="340" fill="#FFFFFF" fill-opacity=".08" stroke="#FFFFFF" stroke-opacity=".38"/><rect x="1812" y="530" width="18" height="22" fill="#FFFFFF" fill-opacity=".12"/><rect x="1854" y="530" width="18" height="22" fill="#FFFFFF" fill-opacity=".12"/><rect x="1896" y="530" width="18" height="22" fill="#FFFFFF" fill-opacity=".12"/><rect x="1812" y="576" width="18" height="22" fill="#FFFFFF" fill-opacity=".12"/><rect x="1854" y="576" width="18" height="22" fill="#FFFFFF" fill-opacity=".12"/><rect x="1896" y="576" width="18" height="22" fill="#FFFFFF" fill-opacity=".12"/><rect x="1812" y="622" width="18" height="22" fill="#FFFFFF" fill-opacity=".12"/><rect x="1854" y="622" width="18" height="22" fill="#FFFFFF" fill-opacity=".12"/><rect x="1896" y="622" width="18" height="22" fill="#FFFFFF" fill-opacity=".12"/><rect x="1812" y="668" width="18" height="22" fill="#FFFFFF" fill-opacity=".12"/><rect x="1854" y="668" width="18" height="22" fill="#FFFFFF" fill-opacity=".12"/><rect x="1896" y="668" width="18" height="22" fill="#FFFFFF" fill-opacity=".12"/><rect x="1812" y="714" width="18" height="22" fill="#FFFFFF" fill-opacity=".12"/><rect x="1854" y="714" width="18" height="22" fill="#FFFFFF" fill-opacity=".12"/><rect x="1896" y="714" width="18" height="22" fill="#FFFFFF" fill-opacity=".12"/><rect x="1812" y="760" width="18" height="22" fill="#FFFFFF" fill-opacity=".12"/><rect x="1854" y="760" width="18" height="22" fill="#FFFFFF" fill-opacity=".12"/><rect x="1896" y="760" width="18" height="22" fill="#FFFFFF" fill-opacity=".12"/><rect x="1812" y="806" width="18" height="22" fill="#FFFFFF" fill-opacity=".12"/><rect x="1854" y="806" width="18" height="22" fill="#FFFFFF" fill-opacity=".12"/><rect x="1896" y="806" width="18" height="22" fill="#FFFFFF" fill-opacity=".12"/><rect x="2010" y="340" width="120" height="500" fill="#FFFFFF" fill-opacity=".08" stroke="#FFFFFF" stroke-opacity=".38"/><rect x="2032" y="370" width="18" height="22" fill="#FFFFFF" fill-opacity=".12"/><rect x="2074" y="370" width="18" height="22" fill="#FFFFFF" fill-opacity=".12"/><rect x="2032" y="416" width="18" height="22" fill="#FFFFFF" fill-opacity=".12"/><rect x="2074" y="416" width="18" height="22" fill="#FFFFFF" fill-opacity=".12"/><rect x="2032" y="462" width="18" height="22" fill="#FFFFFF" fill-opacity=".12"/><rect x="2074" y="462" width="18" height="22" fill="#FFFFFF" fill-opacity=".12"/><rect x="2032" y="508" width="18" height="22" fill="#FFFFFF" fill-opacity=".12"/><rect x="2074" y="508" width="18" height="22" fill="#FFFFFF" fill-opacity=".12"/><rect x="2032" y="554" width="18" height="22" fill="#FFFFFF" fill-opacity=".12"/><rect x="2074" y="554" width="18" height="22" fill="#FFFFFF" fill-opacity=".12"/><rect x="2032" y="600" width="18" height="22" fill="#FFFFFF" fill-opacity=".12"/><rect x="2074" y="600" width="18" height="22" fill="#FFFFFF" fill-opacity=".12"/><rect x="2032" y="646" width="18" height="22" fill="#FFFFFF" fill-opacity=".12"/><rect x="2074" y="646" width="18" height="22" fill="#FFFFFF" fill-opacity=".12"/><rect x="2032" y="692" width="18" height="22" fill="#FFFFFF" fill-opacity=".12"/><rect x="2074" y="692" width="18" height="22" fill="#FFFFFF" fill-opacity=".12"/><rect x="2032" y="738" width="18" height="22" fill="#FFFFFF" fill-opacity=".12"/><rect x="2074" y="738" width="18" height="22" fill="#FFFFFF" fill-opacity=".12"/><rect x="2032" y="784" width="18" height="22" fill="#FFFFFF" fill-opacity=".12"/><rect x="2074" y="784" width="18" height="22" fill="#FFFFFF" fill-opacity=".12"/><path d="M2070.0 340v-70" stroke="#38BDF8" stroke-opacity=".5" stroke-width="2"/><rect x="2190" y="660" width="160" height="180" fill="#FFFFFF" fill-opacity=".08" stroke="#FFFFFF" stroke-opacity=".38"/><rect x="2212" y="690" width="18" height="22" fill="#FFFFFF" fill-opacity=".12"/><rect x="2254" y="690" width="18" height="22" fill="#FFFFFF" fill-opacity=".12"/><rect x="2296" y="690" width="18" height="22" fill="#FFFFFF" fill-opacity=".12"/><rect x="2212" y="736" width="18" height="22" fill="#FFFFFF" fill-opacity=".12"/><rect x="2254" y="736" width="18" height="22" fill="#FFFFFF" fill-opacity=".12"/><rect x="2296" y="736" width="18" height="22" fill="#FFFFFF" fill-opacity=".12"/><rect x="2212" y="782" width="18" height="22" fill="#FFFFFF" fill-opacity=".12"/><rect x="2254" y="782" width="18" height="22" fill="#FFFFFF" fill-opacity=".12"/><rect x="2296" y="782" width="18" height="22" fill="#FFFFFF" fill-opacity=".12"/><path d="M120 840H2280" stroke="#FFFFFF" stroke-opacity=".55" stroke-width="2"/><g clip-path="url(#c120840)"><clipPath id="c120840"><rect x="120" y="840" width="2160" height="40"/></clipPath><path d="M120 840L80 880 M136 840L96 880 M152 840L112 880 M168 840L128 880 M184 840L144 880 M200 840L160 880 M216 840L176 880 M232 840L192 880 M248 840L208 880 M264 840L224 880 M280 840L240 880 M296 840L256 880 M312 840L272 880 M328 840L288 880 M344 840L304 880 M360 840L320 880 M376 840L336 880 M392 840L352 880 M408 840L368 880 M424 840L384 880 M440 840L400 880 M456 840L416 880 M472 840L432 880 M488 840L448 880 M504 840L464 880 M520 840L480 880 M536 840L496 880 M552 840L512 880 M568 840L528 880 M584 840L544 880 M600 840L560 880 M616 840L576 880 M632 840L592 880 M648 840L608 880 M664 840L624 880 M680 840L640 880 M696 840L656 880 M712 840L672 880 M728 840L688 880 M744 840L704 880 M760 840L720 880 M776 840L736 880 M792 840L752 880 M808 840L768 880 M824 840L784 880 M840 840L800 880 M856 840L816 880 M872 840L832 880 M888 840L848 880 M904 840L864 880 M920 840L880 880 M936 840L896 880 M952 840L912 880 M968 840L928 880 M984 840L944 880 M1000 840L960 880 M1016 840L976 880 M1032 840L992 880 M1048 840L1008 880 M1064 840L1024 880 M1080 840L1040 880 M1096 840L1056 880 M1112 840L1072 880 M1128 840L1088 880 M1144 840L1104 880 M1160 840L1120 880 M1176 840L1136 880 M1192 840L1152 880 M1208 840L1168 880 M1224 840L1184 880 M1240 840L1200 880 M1256 840L1216 880 M1272 840L1232 880 M1288 840L1248 880 M1304 840L1264 880 M1320 840L1280 880 M1336 840L1296 880 M1352 840L1312 880 M1368 840L1328 880 M1384 840L1344 880 M1400 840L1360 880 M1416 840L1376 880 M1432 840L1392 880 M1448 840L1408 880 M1464 840L1424 880 M1480 840L1440 880 M1496 840L1456 880 M1512 840L1472 880 M1528 840L1488 880 M1544 840L1504 880 M1560 840L1520 880 M1576 840L1536 880 M1592 840L1552 880 M1608 840L1568 880 M1624 840L1584 880 M1640 840L1600 880 M1656 840L1616 880 M1672 840L1632 880 M1688 840L1648 880 M1704 840L1664 880 M1720 840L1680 880 M1736 840L1696 880 M1752 840L1712 880 M1768 840L1728 880 M1784 840L1744 880 M1800 840L1760 880 M1816 840L1776 880 M1832 840L1792 880 M1848 840L1808 880 M1864 840L1824 880 M1880 840L1840 880 M1896 840L1856 880 M1912 840L1872 880 M1928 840L1888 880 M1944 840L1904 880 M1960 840L1920 880 M1976 840L1936 880 M1992 840L1952 880 M2008 840L1968 880 M2024 840L1984 880 M2040 840L2000 880 M2056 840L2016 880 M2072 840L2032 880 M2088 840L2048 880 M2104 840L2064 880 M2120 840L2080 880 M2136 840L2096 880 M2152 840L2112 880 M2168 840L2128 880 M2184 840L2144 880 M2200 840L2160 880 M2216 840L2176 880 M2232 840L2192 880 M2248 840L2208 880 M2264 840L2224 880 M2280 840L2240 880 M2296 840L2256 880 M2312 840L2272 880" stroke="#FFFFFF" stroke-opacity="0.12" stroke-width="1"/></g><g stroke="#FFFFFF" stroke-opacity="0.42" stroke-width="1.2"><path d="M200 980H2200"/><path d="M200 973v14"/><path d="M2200 973v14"/></g><text x="1200.0" y="968" fill="#FFFFFF" fill-opacity="0.5" font-family="Inter,Helvetica,Arial,sans-serif" font-size="12" font-weight="500" letter-spacing="2.2" text-anchor="middle">PORTFOLIO  24 ACTIVE PROJECTS</text><text x="140" y="120" fill="#FFFFFF" fill-opacity="0.5" font-family="Inter,Helvetica,Arial,sans-serif" font-size="16" font-weight="500" letter-spacing="2.2" text-anchor="start">FOOTPRINT</text><text x="140" y="156" fill="#FFFFFF" fill-opacity="0.32" font-family="Inter,Helvetica,Arial,sans-serif" font-size="13" font-weight="500" letter-spacing="2.2" text-anchor="start">GREATER ACCRA · ASHANTI · WESTERN</text><g><rect x="2028" y="921" width="340" height="76" fill="none" stroke="#FFFFFF" stroke-opacity=".22"/><path d="M2028 949h340" stroke="#FFFFFF" stroke-opacity=".22"/><path d="M2256 921v76" stroke="#FFFFFF" stroke-opacity=".22"/><text x="2042" y="940" fill="#FFFFFF" fill-opacity="0.45" font-family="Inter,Helvetica,Arial,sans-serif" font-size="12" font-weight="500" letter-spacing="2.2" text-anchor="start">PORTFOLIO</text><text x="2042" y="975" fill="#FFFFFF" fill-opacity="0.85" font-family="Inter,Helvetica,Arial,sans-serif" font-size="15" font-weight="600" letter-spacing="0" text-anchor="start">Contract value tracked to retention</text><text x="2270" y="940" fill="#FFFFFF" fill-opacity="0.4" font-family="Inter,Helvetica,Arial,sans-serif" font-size="11" font-weight="500" letter-spacing="2.2" text-anchor="start">SHEET</text><text x="2270" y="975" fill="#FFFFFF" fill-opacity="0.7" font-family="Inter,Helvetica,Arial,sans-serif" font-size="15" font-weight="600" letter-spacing="0" text-anchor="start">S-01</text></g></svg>