<svg xmlns="http://www.w3.org/2000/svg" viewBox="0 0 2400 1029" width="2400" height="1029" role="img" aria-hidden="true"><style>@keyframes fade{0%,100%{opacity:.25}50%{opacity:.8}}.f{animation:fade 6s ease-in-out infinite}@media (prefers-reduced-motion: reduce){.f{animation:none}}</style><rect width="2400" height="1029" fill="#0B1220"/><g stroke="#FFFFFF" stroke-opacity=".055" stroke-width="1"><path d="M0 0V1029"/><path d="M48 0V1029"/><path d="M96 0V1029"/><path d="M144 0V1029"/><path d="M192 0V1029"/><path d="M240 0V1029"/><path d="M288 0V1029"/><path d="M336 0V1029"/><path d="M384 0V1029"/><path d="M432 0V1029"/><path d="M480 0V1029"/><path d="M528 0V1029"/><path d="M576 0V1029"/><path d="M624 0V1029"/><path d="M672 0V1029"/><path d="M720 0V1029"/><path d="M768 0V1029"/><path d="M816 0V1029"/><path d="M864 0V1029"/><path d="M912 0V1029"/><path d="M960 0V1029"/><path d="M1008 0V1029"/><path d="M1056 0V1029"/><path d="M1104 0V1029"/><path d="M1152 0V1029"/><path d="M1200 0V1029"/><path d="M1248 0V1029"/><path d="M1296 0V1029"/><path d="M1344 0V1029"/><path d="M1392 0V1029"/><path d="M1440 0V1029"/><path d="M1488 0V1029"/><path d="M1536 0V1029"/><path d="M1584 0V1029"/><path d="M1632 0V1029"/><path d="M1680 0V1029"/><path d="M1728 0V1029"/><path d="M1776 0V1029"/><path d="M1824 0V1029"/><path d="M1872 0V1029"/><path d="M1920 0V1029"/><path d="M1968 0V1029"/><path d="M2016 0V1029"/><path d="M2064 0V1029"/><path d="M2112 0V1029"/><path d="M2160 0V1029"/><path d="M2208 0V1029"/><path d="M2256 0V1029"/><path d="M2304 0V1029"/><path d="M2352 0V1029"/><path d="M2400 0V1029"/><path d="M0 0H2400"/><path d="M0 48H2400"/><path d="M0 96H2400"/><path d="M0 144H2400"/><path d="M0 192H2400"/><path d="M0 240H2400"/><path d="M0 288H2400"/><path d="M0 336H2400"/><path d="M0 384H2400"/><path d="M0 432H2400"/><path d="M0 480H2400"/><path d="M0 528H2400"/><path d="M0 576H2400"/><path d="M0 624H2400"/><path d="M0 672H2400"/><path d="M0 720H2400"/><path d="M0 768H2400"/><path d="M0 816H2400"/><path d="M0 864H2400"/><path d="M0 912H2400"/><path d="M0 960H2400"/><path d="M0 1008H2400"/></g><g stroke="#FFFFFF" stroke-opacity=".09" stroke-width="1"><path d="M0 0V1029"/><path d="M192 0V1029"/><path d="M384 0V1029"/><path d="M576 0V1029"/><path d="M768 0V1029"/><path d="M960 0V1029"/><path d="M1152 0V1029"/><path d="M1344 0V1029"/><path d="M1536 0V1029"/><path d="M1728 0V1029"/><path d="M1920 0V1029"/><path d="M2112 0V1029"/><path d="M2304 0V1029"/><path d="M0 0H2400"/><path d="M0 192H2400"/><path d="M0 384H2400"/><path d="M0 576H2400"/><path d="M0 768H2400"/><path d="M0 960H2400"/></g><rect x="24" y="24" width="2352" height="981" fill="none" stroke="#FFFFFF" stroke-opacity=".18"/><rect x="34" y="34" width="2332" height="961" fill="none" stroke="#FFFFFF" stroke-opacity=".08"/><rect x="180" y="240" width="880" height="560" fill="none" stroke="#FFFFFF" stroke-opacity=".45"/><path d="M620 240V800M180 540H1060" stroke="#FFFFFF" stroke-opacity=".28"/><g clip-path="url(#c180240)"><clipPath id="c180240"><rect x="180" y="240" width="440" height="300"/></clipPath><path d="M180 240L-120 540 M200 240L-100 540 M220 240L-80 540 M240 240L-60 540 M260 240L-40 540 M280 240L-20 540 M300 240L0 540 M320 240L20 540 M340 240L40 540 M360 240L60 540 M380 240L80 540 M400 240L100 540 M420 240L120 540 M440 240L140 540 M460 240L160 540 M480 240L180 540 M500 240L200 540 M520 240L220 540 M540 240L240 540 M560 240L260 540 M580 240L280 540 M600 240L300 540 M620 240L320 540 M640 240L340 540 M660 240L360 540 M680 240L380 540 M700 240L400 540 M720 240L420 540 M740 240L440 540 M760 240L460 540 M780 240L480 540 M800 240L500 540 M820 240L520 540 M840 240L540 540 M860 240L560 540 M880 240L580 540 M900 240L600 540 M920 240L620 540" stroke="#FFFFFF" stroke-opacity="0.1" stroke-width="1"/></g><path class="f" d="M180 240H1060V800H180Z" fill="none" stroke="#38BDF8" stroke-opacity=".7" stroke-width="3" stroke-dasharray="14 10"/><g stroke="#FFFFFF" stroke-opacity="0.42" stroke-width="1.2"><path d="M180 860H1060"/><path d="M180 853v14"/><path d="M1060 853v14"/></g><text x="620.0" y="848" fill="#FFFFFF" fill-opacity="0.5" font-family="Inter,Helvetica,Arial,sans-serif" font-size="12" font-weight="500" letter-spacing="2.2" text-anchor="middle">180 m² MEASURED</text><text x="200" y="200" fill="#FFFFFF" fill-opacity="0.5" font-family="Inter,Helvetica,Arial,sans-serif" font-size="14" font-weight="500" letter-spacing="2.2" text-anchor="start">TAKEOFF</text><text x="1300" y="200" fill="#FFFFFF" fill-opacity="0.5" font-family="Inter,Helvetica,Arial,sans-serif" font-size="14" font-weight="500" letter-spacing="2.2" text-anchor="start">ESTIMATE  FOUNDATION</text><path d="M1300 230h880" stroke="#FFFFFF" stroke-opacity=".35"/><text x="1300" y="290" fill="#FFFFFF" fill-opacity="0.85" font-family="Inter,Helvetica,Arial,sans-serif" font-size="18" font-weight="500" letter-spacing="0" text-anchor="start">Excavation</text><text x="1860" y="290" fill="#FFFFFF" fill-opacity="0.5" font-family="Inter,Helvetica,Arial,sans-serif" font-size="18" font-weight="500" letter-spacing="0" text-anchor="end">48</text><text x="1920" y="290" fill="#FFFFFF" fill-opacity="0.35" font-family="Inter,Helvetica,Arial,sans-serif" font-size="14" font-weight="500" letter-spacing="0" text-anchor="start">m³</text><text x="2180" y="290" fill="#FFFFFF" fill-opacity="0.9" font-family="Inter,Helvetica,Arial,sans-serif" font-size="18" font-weight="500" letter-spacing="0" text-anchor="end">6,624</text><path d="M1300 316h880" stroke="#FFFFFF" stroke-opacity=".12"/><text x="1300" y="372" fill="#FFFFFF" fill-opacity="0.85" font-family="Inter,Helvetica,Arial,sans-serif" font-size="18" font-weight="500" letter-spacing="0" text-anchor="start">Concrete C25</text><text x="1860" y="372" fill="#FFFFFF" fill-opacity="0.5" font-family="Inter,Helvetica,Arial,sans-serif" font-size="18" font-weight="500" letter-spacing="0" text-anchor="end">22</text><text x="1920" y="372" fill="#FFFFFF" fill-opacity="0.35" font-family="Inter,Helvetica,Arial,sans-serif" font-size="14" font-weight="500" letter-spacing="0" text-anchor="start">m³</text><text x="2180" y="372" fill="#FFFFFF" fill-opacity="0.9" font-family="Inter,Helvetica,Arial,sans-serif" font-size="18" font-weight="500" letter-spacing="0" text-anchor="end">24,794</text><path d="M1300 398h880" stroke="#FFFFFF" stroke-opacity=".12"/><text x="1300" y="454" fill="#FFFFFF" fill-opacity="0.85" font-family="Inter,Helvetica,Arial,sans-serif" font-size="18" font-weight="500" letter-spacing="0" text-anchor="start">Reinforcement 12 mm</text><text x="1860" y="454" fill="#FFFFFF" fill-opacity="0.5" font-family="Inter,Helvetica,Arial,sans-serif" font-size="18" font-weight="500" letter-spacing="0" text-anchor="end">1.8</text><text x="1920" y="454" fill="#FFFFFF" fill-opacity="0.35" font-family="Inter,Helvetica,Arial,sans-serif" font-size="14" font-weight="500" letter-spacing="0" text-anchor="start">t</text><text x="2180" y="454" fill="#FFFFFF" fill-opacity="0.9" font-family="Inter,Helvetica,Arial,sans-serif" font-size="18" font-weight="500" letter-spacing="0" text-anchor="end">20,563</text><path d="M1300 480h880" stroke="#FFFFFF" stroke-opacity=".12"/><text x="1300" y="536" fill="#FFFFFF" fill-opacity="0.85" font-family="Inter,Helvetica,Arial,sans-serif" font-size="18" font-weight="500" letter-spacing="0" text-anchor="start">Masonry labour</text><text x="1860" y="536" fill="#FFFFFF" fill-opacity="0.5" font-family="Inter,Helvetica,Arial,sans-serif" font-size="18" font-weight="500" letter-spacing="0" text-anchor="end">14</text><text x="1920" y="536" fill="#FFFFFF" fill-opacity="0.35" font-family="Inter,Helvetica,Arial,sans-serif" font-size="14" font-weight="500" letter-spacing="0" text-anchor="start">day</text><text x="2180" y="536" fill="#FFFFFF" fill-opacity="0.9" font-family="Inter,Helvetica,Arial,sans-serif" font-size="18" font-weight="500" letter-spacing="0" text-anchor="end">3,542</text><path d="M1300 562h880" stroke="#FFFFFF" stroke-opacity=".12"/><text x="1300" y="618" fill="#FFFFFF" fill-opacity="0.85" font-family="Inter,Helvetica,Arial,sans-serif" font-size="18" font-weight="500" letter-spacing="0" text-anchor="start">Hardcore filling</text><text x="1860" y="618" fill="#FFFFFF" fill-opacity="0.5" font-family="Inter,Helvetica,Arial,sans-serif" font-size="18" font-weight="500" letter-spacing="0" text-anchor="end">26</text><text x="1920" y="618" fill="#FFFFFF" fill-opacity="0.35" font-family="Inter,Helvetica,Arial,sans-serif" font-size="14" font-weight="500" letter-spacing="0" text-anchor="start">m³</text><text x="2180" y="618" fill="#FFFFFF" fill-opacity="0.9" font-family="Inter,Helvetica,Arial,sans-serif" font-size="18" font-weight="500" letter-spacing="0" text-anchor="end">5,382</text><path d="M1300 644h880" stroke="#FFFFFF" stroke-opacity=".12"/><path d="M1300 730h880" stroke="#FFFFFF" stroke-opacity=".35"/><text x="1300" y="780" fill="#FFFFFF" fill-opacity="0.5" font-family="Inter,Helvetica,Arial,sans-serif" font-size="14" font-weight="500" letter-spacing="2.2" text-anchor="start">DIRECT COST</text><text x="2180" y="786" fill="#FFFFFF" fill-opacity="0.95" font-family="Inter,Helvetica,Arial,sans-serif" font-size="30" font-weight="600" letter-spacing="0" text-anchor="end">GHS 489,100</text><g><rect x="2028" y="921" width="340" height="76" fill="none" stroke="#FFFFFF" stroke-opacity=".22"/><path d="M2028 949h340" stroke="#FFFFFF" stroke-opacity=".22"/><path d="M2256 921v76" stroke="#FFFFFF" stroke-opacity=".22"/><text x="2042" y="940" fill="#FFFFFF" fill-opacity="0.45" font-family="Inter,Helvetica,Arial,sans-serif" font-size="12" font-weight="500" letter-spacing="2.2" text-anchor="start">EST-2026-0118</text><text x="2042" y="975" fill="#FFFFFF" fill-opacity="0.85" font-family="Inter,Helvetica,Arial,sans-serif" font-size="15" font-weight="600" letter-spacing="0" text-anchor="start">Measured, priced, quoted</text><text x="2270" y="940" fill="#FFFFFF" fill-opacity="0.4" font-family="Inter,Helvetica,Arial,sans-serif" font-size="11" font-weight="500" letter-spacing="2.2" text-anchor="start">SHEET</text><text x="2270" y="975" fill="#FFFFFF" fill-opacity="0.7" font-family="Inter,Helvetica,Arial,sans-serif" font-size="15" font-weight="600" letter-spacing="0" text-anchor="start">P-01</text></g></svg>